# xmcd
#
# Track frame offsets:
#	150
#	12142
#	24615
#	39240
#	53445
#	69577
#	81147
#	95007
#	107197
#	121082
#	134315
#	150485
#	167245
#	177072
#
# Disc length: 2524 seconds
#
# Revision: 0
# Processed by: cddbd v1.5.1PL0 Copyright (c) Steve Scherf et al.
# Submitted via: dBpowerAMP V4.0
#
DISCID=a509da0e
DTITLE=Lindsay Butler and Barry Thornton - Butz 'N' Bazza
DYEAR=1991
DGENRE=Country
TTITLE0=Boundry Rider
TTITLE1=White Crosses in the Jungle
TTITLE2=Star of Love
TTITLE3=Pledge of love
TTITLE4=Slim Dusty Medley
TTITLE5=Roses in Spring
TTITLE6=Home among the gum trees
TTITLE7=Big fella Wadumbah
TTITLE8=G'day G'day
TTITLE9=One foot in the Bidgee
TTITLE10=Maori's farewell
TTITLE11=John Williamson's Medley
TTITLE12=Thingo
TTITLE13=I'm married to my bulldog mack
EXTD=
EXTT0=
EXTT1=
EXTT2=
EXTT3=
EXTT4=
EXTT5=
EXTT6=
EXTT7=
EXTT8=
EXTT9=
EXTT10=
EXTT11=
EXTT12=
EXTT13=
PLAYORDER=
